# xmcd CD database file
#
# Track frame offsets:
#	150
#	31621
#	63843
#	94148
#	133298
#	148888
#	180843
#	206478
#	238218
#	257325
#	274635
#	307502
#
# Disc length: 4493 seconds
#
# Revision: 0
# Processed by: cddbd v1.5.2PL0 Copyright (c) Steve Scherf et al.
# Submitted via: Feurio! 1.68 - http://www.feurio.com
#
DISCID=9b118b0c
DTITLE=Autumn Blues Band - Live im Grauen Hof 2006
DYEAR=1900
DGENRE=
TTITLE0=ABB CD 3 - Got my mojo working ok
TTITLE1=ABB CD 3 - Stormy monday blues ok.
TTITLE2=ABB CD 2 - Sweet home Chicago
TTITLE3=ABB CD 2 - Crossroads ok
TTITLE4=ABB CD 1 - I feel good
TTITLE5=ABB CD 1 - Morgens um halb 7 o.k.
TTITLE6=ABB CD 3 - Caledonia ok.
TTITLE7=ABB CD 2 - Before accuse me
TTITLE8=ABB CD 1 - Kaufrausch o.k.
TTITLE9=ABB CD 3 - St James Infirary ok
TTITLE10=ABB CD 2 - Mountain boogie
TTITLE11=ABB CD 3 - Hand it over na ja
EXTD=
EXTT0=
EXTT1=
EXTT2=
EXTT3=
EXTT4=
EXTT5=
EXTT6=
EXTT7=
EXTT8=
EXTT9=
EXTT10=
EXTT11=
PLAYORDER=
